<?xml version="1.0" encoding="UTF-8"?>
<svg id="Layer_2" data-name="Layer 2" xmlns="http://www.w3.org/2000/svg" viewBox="0 0 876.08 1024">
  <defs>
    <style>
      .cls-1 {
        fill: #000;
      }

      .cls-1, .cls-2 {
        stroke-width: 0px;
      }

      .cls-2 {
        fill: #fff;
      }
    </style>
  </defs>
  <g>
    <path class="cls-2" d="M876.08,530.12v-65.87s-18.75-113.36-116.11-122.55c-120.94-13.06-95.83,11.45-158.66,4.6,0,0-14.82-42.97-35.83-46.06-4.04-.59-7.16,3.75-5.75,7.81l5.67,29.42c3.18,9.59-3.04,9.25-12.61,9.17,0,0-165.57-6.3-165.57-6.3,0,0-1.2-5.11-23.8-5.49s-24.52,3.32-24.52,3.32c-34.93-.58-100.33,2.46-137.62-2.89C62.96,316.85-4.65,383.16.25,530.12"/>
    <path class="cls-1" d="M698.12,531.24s-1.22-132.27-35.97-152.72c-1.39-.82-2.94-1.28-4.53-1.37-8.85-.5-44.05-2.27-56.62.12-11.61,2.21-73.94,11.76-97.78,15.39-5.3.81-9.2,5.71-9.11,11.43.4,24.43,1.4,87.91,1.55,127.14"/>
    <path class="cls-1" d="M86.85,532.33s-6.73-114.21,53.53-136.33c-20.83,0-104.49,16.34-116.35,71.49-4.17,16-10.58,35.39-10.9,64.84"/>
  </g>
  <g>
    <path class="cls-2" d="M876.08,530.12v65.87s-18.75,113.36-116.11,122.55c-120.94,13.06-95.83-11.45-158.66-4.6,0,0-14.82,42.97-35.83,46.06-4.04.59-7.16-3.75-5.75-7.81l5.67-29.42c3.18-9.59-3.04-9.25-12.61-9.17,0,0-165.57,6.3-165.57,6.3,0,0-1.2,5.11-23.8,5.49s-24.52-3.32-24.52-3.32c-34.93.58-100.33-2.46-137.62,2.89C62.96,743.39-4.65,677.08.25,530.12"/>
    <path class="cls-1" d="M698.12,529s-1.22,132.27-35.97,152.72c-1.39.82-2.94,1.28-4.53,1.37-8.85.5-44.05,2.27-56.62-.12-11.61-2.21-73.94-11.76-97.78-15.39-5.3-.81-9.2-5.71-9.11-11.43.4-24.43,1.4-87.91,1.55-127.14"/>
    <path class="cls-1" d="M86.85,527.91s-6.73,114.21,53.53,136.33c-20.83,0-104.49-16.34-116.35-71.49-4.17-16-10.58-35.39-10.9-64.84"/>
  </g>
</svg>